<?xml version="1.0" encoding="utf-8"?>
<!DOCTYPE svg PUBLIC "-//W3C//DTD SVG 1.1//EN" "http://www.w3.org/Graphics/SVG/1.1/DTD/svg11.dtd">
<svg width="600" height="300">
<path d="M 161.9895290573309 57.14601036527175 C 164.1143190820638 56.420084866389715 164.80789989429599 58.99836382326081 165.63622007588992 61.159933704348354 L 167.51166360129054 71.5564762391887 L 167.57563469664294 74.58178875374604 L 167.97306530335706 74.85785124625396 L 167.03387639870948 71.6331637608113 C 166.34673159182245 69.67015051822095 164.51989674251615 63.32719961456411 163.39209992411008 61.77109629565165 L 163.39209992411008 61.77109629565165 L 159.51523094266906 61.25914163472825 C 158.81394550927948 58.946598669538304 158.92903449072048 57.195614330461694 161.9895290573309 57.14601036527175 " stroke="#000000"   style="stroke-width: 1px;"/>
<path d="M 182.8631135012046 130.84714022046649 C 183.18071773871958 132.28735580492494 183.42836863067697 134.18521347309746 183.05689570989486 137.323971797958 C 182.68542278911275 140.46273012281853 181.233406329548 146.54754594988353 180.38662736265712 151.7721957195368 C 179.53984839576626 156.99684548919006 178.30335363510886 164.8379665570987 177.41170259728915 172.15497026231307 C 176.52005155946944 179.47197396752745 175.1051997720476 193.7877352823333 174.4422871105258 200.5522204209659 C 173.779374449004 207.31670555959852 173.48108630960448 213.80790377393598 172.99228485381045 217.25153785319705 C 172.5034833980164 220.69517193245812 171.46826564041817 222.30433461161073 171.18361073856553 223.5097809493731 C 170.8989558367129 224.71522728713546 170.4159257401813 227.15829457260605 171.09458550812627 225.2878467716128 C 171.77324527607124 223.41739897061956 174.31042527206222 216.8146976152145 175.7080091915319 211.0401289427514 C 177.10559311100155 205.26556027028832 178.67218016684723 195.67868170002512 180.41181163792407 186.79072228852556 C 182.15144310900092 177.902762877026 184.2490450650134 162.97811620955653 187.3055523320442 151.7870661994209 C 190.36205959907497 140.59601618928528 197.401309444911 120.23158031639166 200.78852675146254 112.18372222095464 C 204.1757440580141 104.13586412551761 207.5374812537504 100.12107797128539 209.88700104238777 98.13467889650742 C 212.23652083102513 96.14827982172946 215.58584368065104 97.33734531880891 216.45199200904491 98.94106172243492 C 217.3181403374388 100.54477812606093 216.4171294836675 104.78427573292556 215.6613232316802 108.82612158734753 C 214.9055169796929 112.8679674417695 212.86386994135285 120.29792834653358 211.41328366246285 125.88670075191467 C 209.96269738357284 131.47547315729577 207.11550927819508 141.52335202466705 205.99074803908016 146.08460428988815 C 204.86598679996524 150.64585655510925 204.19711608567297 154.0990621681353 203.9148754016967 156.29504918672208 C 203.6326347177204 158.49103620530886 202.89950390288834 160.557532906569 204.1091434792383 160.7245177471333 C 205.31878305558826 160.89150258769757 208.63990475826958 159.51041105409595 211.97913924402982 157.40828145715057 C 215.31837372979007 155.30615186020518 222.5090392896839 148.4620465143256 226.37070671763988 146.7103204341641 C 230.23237414559586 144.95859435400257 235.43466785663892 144.71487431142694 237.72358876373633 145.73010758940708 C 240.01250967083374 146.74534086738723 241.12582772080268 149.88607745171367 241.63017943162262 153.47854228736497 C 242.13453114244257 157.07100712301627 241.55624650598432 165.4447933000068 241.0859335025359 169.6798731604157 C 240.6156204990875 173.91495302082458 239.20266759192793 178.60856874072817 238.49475940863323 181.7124080234242 C 237.78685122533852 184.8162473061202 237.2967539946543 188.94683809269 236.36654561390455 190.3721350450558 C 235.4363372331548 191.79743199742163 232.16070164722424 192.05523922674607 232.29337020363482 191.21438770586295 C 232.4260387600454 190.37353618497983 234.53831902989032 189.6920277342222 237.2510026566417 184.76645823916832 C 239.9636862833931 179.84088874411444 246.2660627472522 166.1182558046758 250.37792771531068 158.37725773883702 C 254.48979268336916 150.63625967299822 260.12143123114254 139.80792021127036 264.66343577703157 133.15980446690972 C 269.2054403229206 126.51168872254908 276.73627030779505 117.0776910837607 280.6579580212375 114.05648610976606 C 284.57964573467996 111.03528113577141 288.93269128779315 111.94912961800559 290.8080205333145 113.01843797361207 C 292.68334977883586 114.08774632921855 292.7483777061015 118.6548199450966 293.16015299137996 121.18520848047596 C 293.5719282766584 123.71559701585532 293.58513654958045 127.93186343490768 293.5531891018374 129.88769487614113 C 293.52124165409435 131.84352631737457 291.70238811725284 134.4458380365811 292.94717000642635 134.22408475536557 C 294.19195189559986 134.00233147415003 298.7852804866827 131.76041504466306 301.8517350296607 128.4093396680375 C 304.91818957263865 125.05826429141192 309.3852056435174 118.65248935158407 313.39020029294596 111.88358224452843 C 317.39519494237453 105.11467513747279 324.43534283230383 91.87113999679983 328.55169935918457 83.28329228766653 C 332.6680558860653 74.69544457853323 337.37409026560493 62.071302910118376 340.83257713881767 54.631264183639786 C 344.2910640120304 47.191225457161195 348.632153686214 36.788914808077145 351.6082785139362 33.68303411114259 C 354.58440334165846 30.577153414208034 359.33522411401344 31.453629042327698 360.6734093236327 33.92539287074274 C 362.011594533252 36.39715669915778 361.3209355012568 40.74557810346769 360.5295132447312 50.16145963390954 C 359.7380909882056 59.57734116435138 356.4208121928805 82.51667402038991 355.39726094679514 96.69793640702171 C 354.3737097007098 110.87919879365352 353.89356594789643 130.9471310915797 353.70583827082896 144.70320887812156 C 353.5181105937615 158.4592866646634 353.77131681857935 175.6145748766217 354.1457430996788 188.40512165063416 C 354.5201693807782 201.1956684246466 355.74440736686967 221.1668202957141 356.2020134781587 229.97352070487133 L 357.1964505082722 247.11645771168233 L 358.722270427979 246.93214239432274 L 359.02088957202096 247.55065760567726 L 357.2864694917278 247.79736228831766 C 356.53595603420086 245.20105454173537 355.2526734105523 239.08611088597144 354.0174665218413 230.24193929512867 L 354.0174665218413 230.24193929512867 C 352.7822596331303 221.3977677042859 349.99393161922177 201.64910857535335 349.0517569003212 188.83621834936582 L 349.0517569003212 188.83621834936582 C 348.10958218142065 176.0233281233783 347.69829440623846 158.67433933533655 347.73630172917103 144.82267112187841 L 347.73630172917103 144.82267112187841 C 347.7743090521036 130.97100290842027 348.2973512992902 110.79111040634646 349.30513905320487 96.49176359297827 L 349.30513905320487 96.49176359297827 C 350.31292680711954 82.19241677961008 353.62875701179445 58.892474935648615 354.45488675526883 49.493692366090464 L 354.45488675526883 49.493692366090464 C 355.2810164987432 40.09490979653231 354.86634746674804 35.434722100842215 354.8126706763673 33.83321312925726 L 354.8126706763673 33.83321312925726 C 354.75899388598657 32.231704157672304 355.5221866583415 35.360346585791966 354.0970414860638 38.81696588885741 L 354.0970414860638 38.81696588885741 C 352.6718963137861 42.273585191922855 348.5114939879696 49.93160774283881 345.3117028611823 56.877341816360214 L 345.3117028611823 56.877341816360214 C 342.11191173439505 63.82307588988162 337.0750721139346 76.60841652146675 332.7651006408154 85.12185971233346 L 332.7651006408154 85.12185971233346 C 328.45512916769616 93.63530290320017 320.7742030576254 106.83192766252722 316.578559707054 113.63362975547157 L 316.578559707054 113.63362975547157 C 312.3829163564826 120.43533184841593 308.0098194273614 126.89950650858808 304.79414497033935 130.4665403319625 L 304.79414497033935 130.4665403319625 C 301.5784705133173 134.03357415533694 297.4696201044002 137.14371652584998 295.14072999357364 137.41385524463445 L 295.14072999357364 137.41385524463445 C 292.8118398827471 137.6839939634189 290.3158233459057 134.64354368262545 289.26821089816264 132.2674651238589 L 289.26821089816264 132.2674651238589 C 288.2205984504196 129.89138656509235 288.64769172334155 124.2476804841447 288.15664700862 121.57333151952405 L 288.15664700862 121.57333151952405 C 287.6656022938984 118.8989825549034 286.8653422211641 114.88855267078145 285.9945794666855 114.43847202638793 L 285.9945794666855 114.43847202638793 C 285.12381671220686 113.9883913819944 285.01295426532 115.32245536422859 282.35156197876245 118.57279389023394 L 282.35156197876245 118.57279389023394 C 279.6901696922049 121.82313241623929 272.4372416770794 129.79213927745093 268.2519642229684 136.10739553309028 L 268.2519642229684 136.10739553309028 C 264.06668676885744 142.42265178872964 258.46322431663083 153.05988932700177 254.4497122846893 160.67450226116298 L 254.4497122846893 160.67450226116298 C 250.43620025274777 168.2891151953242 244.1994537166069 181.8401592558856 241.4952173433583 186.8714817608317 L 241.4952173433583 186.8714817608317 C 238.79098097010967 191.9028042657778 237.9439852399546 193.44112181502018 236.42146979636516 194.21665229413705 L 236.42146979636516 194.21665229413705 C 234.89895435277572 194.99218277325392 231.8239127668452 194.07543600257836 231.34511438609545 192.04168495494417 L 231.34511438609545 192.04168495494417 C 230.86631600534568 190.00793390731 232.50791877466148 184.1816256938798 233.22948059136678 180.65831197657582 L 233.22948059136678 180.65831197657582 C 233.95104240807208 177.13499825927184 235.61017150091251 172.65837497917542 236.1555264974641 168.5529268395843 L 236.1555264974641 168.5529268395843 C 236.7008814940157 164.44747869999318 237.26364885755746 156.35568587698373 236.86518056837738 153.28865771263503 L 236.86518056837738 153.28865771263503 C 236.4667122791973 150.22162954828633 234.89666732916626 148.3839471326128 233.4990712362637 148.10607241059293 L 233.4990712362637 148.10607241059293 C 232.1014751433611 147.82819768857306 230.34450785440418 149.47020464599743 227.54787328236014 151.4361595658359 L 227.54787328236014 151.4361595658359 C 224.7512387103161 153.4021144856744 218.09866827020994 159.1766201397948 214.85484075597017 161.21243854284944 L 214.85484075597017 161.21243854284944 C 211.6110132417304 163.24825694590407 208.17353794441172 165.39087041230243 205.9223565207617 165.0082822528667 L 205.9223565207617 165.0082822528667 C 203.67117509711167 164.62569409343098 200.5430072822796 161.60596479469118 199.84696459830332 158.66185081327794 L 199.84696459830332 158.66185081327794 C 199.15092191432703 155.7177368318647 200.2626312000348 150.48555664489075 201.28207196091986 145.38085571011186 L 201.28207196091986 145.38085571011186 C 202.30151272180493 140.27615477533297 205.19727761642713 130.29173884270423 206.64323633753713 124.63051124808533 L 206.64323633753713 124.63051124808533 C 208.08919505864714 118.96928365346642 210.17289602030712 111.55007435823052 210.9217967683198 107.63933841265248 L 210.9217967683198 107.63933841265248 C 211.6706975163325 103.72860246707444 211.4844916625612 99.34745907393906 211.63590799095508 98.55893827756508 L 211.63590799095508 98.55893827756508 C 211.78732431934895 97.77041748119109 212.9673031689749 99.97238717827054 211.93123895761224 102.38253310349258 L 211.93123895761224 102.38253310349258 C 210.89517474624958 104.79267902871462 207.77420194198592 106.9955526744824 204.72881324853745 114.62657777904538 L 204.72881324853745 114.62657777904538 C 201.68342455508898 122.25760288360836 194.628573400925 142.30269181071472 191.6286476679558 153.25603380057908 L 191.6286476679558 153.25603380057908 C 188.62872193498657 164.20937579044343 186.45047989099908 178.853626122974 184.72930836207593 187.64885771147442 L 184.72930836207593 187.64885771147442 C 183.00813683315278 196.44408929997485 181.54028688899848 206.03452472971168 180.15417080846814 211.8909110572486 L 180.15417080846814 211.8909110572486 C 178.7680547279378 217.7472973847855 176.91646572392878 224.29464502938046 175.48853449187374 226.6914332283872 L 175.48853449187374 226.6914332283872 C 174.0606032598187 229.08822142739396 171.6716271632871 229.27560071286453 170.63462926143447 227.8694990506269 L 170.63462926143447 227.8694990506269 C 169.59763135958184 226.46339738838927 168.68784660198358 221.47076006754187 168.57521514618955 217.31742214680295 L 168.57521514618955 217.31742214680295 C 168.46258369039552 213.16408422606403 169.230043550996 207.02601144040148 169.88375288947418 200.1805795790341 L 169.88375288947418 200.1805795790341 C 170.53746222795237 193.3351477176667 172.05689644053058 179.04093503247256 172.93327740271087 171.68120973768694 L 172.93327740271087 171.68120973768694 C 173.80965836489116 164.32148444290132 174.9031486042337 156.39755651080995 175.72629263734285 151.11574428046322 L 175.72629263734285 151.11574428046322 C 176.549436670452 145.8339320501165 178.07764521088725 139.47260587718145 178.42090429010514 136.469128202042 L 178.42090429010514 136.469128202042 L 178.01468649879538 131.09255977953353 C 180.2357911043451 128.28156578874578 180.34200889565486 127.73143421125425 182.8631135012046 130.84714022046649 " stroke="#000000"   style="stroke-width: 1px;"/>
</svg>